<?xml version="1.0" encoding="utf-8"?>
<!-- Generator: Adobe Illustrator 27.5.0, SVG Export Plug-In . SVG Version: 6.00 Build 0)  -->
<svg version="1.1" id="Layer_1" xmlns="http://www.w3.org/2000/svg" xmlns:xlink="http://www.w3.org/1999/xlink" x="0px" y="0px"
	 viewBox="-5.669 -16.061 38.5 33.082" style="enable-background:new -5.669 -16.061 38.5 33.082;" xml:space="preserve">
<rect x="-5.668" y="-16.061" style="fill:#161213;" width="38.499" height="33.082"/>
<g>
	<path style="fill:#F5F5F5;" d="M21.111,7.098c0.254,0.293,0.523,0.527,0.807,0.685c0.283,0.165,0.611,0.229,0.975,0.194
		c0.064-0.011,0.104,0.05,0.129,0.179c0.02,0.13,0.02,0.293,0,0.493c-0.02,0.198-0.065,0.417-0.129,0.65
		c-0.064,0.234-0.154,0.457-0.269,0.671c-0.119,0.21-0.259,0.389-0.423,0.538c-0.164,0.148-0.359,0.233-0.577,0.248
		c-0.368,0.04-0.701-0.061-1.01-0.299c-0.085-0.064-0.175-0.139-0.26-0.223l-0.005-0.005l-0.004-0.006l-0.01-0.01l0,0l-0.011-0.005
		l-0.005-0.01h-0.005l-0.01-0.011v-0.005l-0.01-0.004l-0.006-0.005l-0.005-0.006l-0.004-0.01l-0.03-0.03v-0.005l-0.01-0.009h-0.006
		l-0.005-0.011l-0.004-0.005l-0.006-0.005l-0.01-0.01l0,0l-0.01-0.01l-0.005-0.006l-0.006-0.005l-0.004-0.009l-0.016-0.011v-0.005
		l-0.03-0.03l0,0l-0.009-0.01V9.998L20.12,9.992l-0.005-0.01V9.976l-0.01-0.009h-0.005l-0.005-0.01l-0.005-0.006l-0.006-0.005
		l-0.01-0.015l0,0l-0.009-0.01l-0.006-0.005l-0.005-0.006l-0.005-0.009l-0.006-0.006l-0.009-0.01l0,0l-0.01-0.01l-0.006-0.01
		l-0.005-0.005l-0.004-0.011l0,0l-0.011-0.009l-0.005-0.006l-0.006-0.01l-0.009-0.011l-0.01-0.015l0,0l-0.011-0.01l-0.005-0.009
		l-0.019-0.03h-0.005l-0.006-0.01l-0.009-0.011V9.728l-0.011-0.01V9.714l-0.011-0.01l-0.003-0.006l-0.006-0.004l-0.01-0.016l0,0
		l-0.006-0.01l-0.005-0.005l-0.004-0.01l-0.01-0.011l0,0L19.842,9.63V9.624l-0.01-0.01l-0.005-0.005l-0.005-0.006L19.817,9.59l0,0
		l-0.01-0.016L19.802,9.57l-0.004-0.006L19.787,9.55l0,0l-0.011-0.015l0,0l-0.009-0.011l-0.005-0.01V9.511l-0.011-0.016
		c-0.273-0.407-0.537-0.88-0.796-1.412c-0.537-1.099-1.074-2.197-1.721-3.242c-0.323-0.518-0.682-0.97-1.075-1.358
		c-0.394-0.388-0.836-0.682-1.328-0.89c-0.035-0.015-0.074-0.03-0.109-0.039C18.763,2.558,19.09,4.707,21.111,7.098L21.111,7.098z"
		/>
	<path style="fill:#FED83C;" d="M9.982-1.617c-0.035-0.025-0.08-0.055-0.119-0.089c-2.02-2.158-6.293-4.266-5.811,0.93
		c0.005,0.079-0.07,0.159-0.234,0.233C3.654-0.469,3.465-0.419,3.25-0.389c-0.208,0.025-0.408,0.02-0.586-0.02
		C2.485-0.449,2.385-0.553,2.36-0.717c-0.497-3.849,4.462-4.281,7.482-1.9c0.054,0.045,0.114,0.089,0.169,0.134
		C9.982-2.209,9.971-1.921,9.982-1.617L9.982-1.617z"/>
	<path style="fill:#FED83C;" d="M16.152-5.053C16.13-4.889,16.1-4.72,16.061-4.541c-0.04,0.179-0.099,0.363-0.184,0.557
		c-0.129,0.298-0.274,0.586-0.443,0.855c-0.164,0.273-0.354,0.517-0.571,0.73c-0.244,0.244-0.503,0.457-0.787,0.646
		c-0.272,0.174-0.557,0.318-0.855,0.432c0.01-0.218,0.024-0.438,0.04-0.656c0.463-0.189,0.87-0.462,1.219-0.831
		c0.155-0.179,0.309-0.378,0.453-0.596c0.144-0.219,0.264-0.457,0.358-0.716c0.074-0.154,0.129-0.303,0.164-0.448
		c0.035-0.139,0.059-0.278,0.074-0.408c0.024-0.278-0.006-0.507-0.089-0.686c-0.14-0.283-0.408-0.402-0.717-0.363
		c-0.125,0.015-0.26,0.06-0.408,0.129c-0.079,0.045-0.16,0.094-0.233,0.159C14.006-5.67,13.927-5.6,13.858-5.515
		c-1.085,1.019-1.085,4.415-1.224,5.773c-0.05,0.472-0.125,0.949-0.219,1.442c3.617-0.577,7.955-5.783,7.318-9.358
		c-0.011-0.059,0.059-0.119,0.209-0.169c0.143-0.05,0.328-0.084,0.543-0.095c0.213-0.015,0.441,0.005,0.686,0.045
		c0.243,0.044,0.453,0.129,0.632,0.258c0.174,0.129,0.299,0.309,0.369,0.537c0.242,0.771-0.941,2.834-1.339,3.49
		c-1.996,3.282-4.836,5.275-8.597,6.136c-0.493,2.068-1.806,4.295-3.577,5.509c-4.93,3.365-6.069-3.357-1.886-4.53
		c0.353-0.099,0.736-0.104,1.149-0.02c0.11,0.025,0.165,0.119,0.165,0.278c0,0.159-0.04,0.318-0.114,0.473
		C7.897,4.413,7.798,4.543,7.683,4.642c-0.119,0.1-0.238,0.1-0.358,0c-3.239-2.676-3.99,8.486,0.552,1.83
		C8.26,5.91,8.564,5.233,8.852,4.482C9.39,3.081,9.807,1.59,10.027,0.098C11.24-8.374,16.39-8.071,16.152-5.053L16.152-5.053z"/>
</g>
</svg>
